<svg width="15" height="16" viewBox="0 0 15 16" fill="none" xmlns="http://www.w3.org/2000/svg">
<path fill-rule="evenodd" clip-rule="evenodd" d="M6.11539 15.2365C6.39664 15.5174 6.77789 15.6752 7.17539 15.6752C7.57289 15.6752 7.95414 15.5174 8.23539 15.2365L13.8934 9.58049C14.1747 9.2991 14.3326 8.9175 14.3325 8.51964C14.3325 8.32264 14.2936 8.12758 14.2182 7.94559C14.1428 7.7636 14.0322 7.59826 13.8929 7.45899C13.7536 7.31972 13.5882 7.20926 13.4061 7.13392C13.2241 7.05857 13.029 7.01982 12.832 7.01986C12.635 7.01991 12.44 7.05876 12.258 7.13419C12.076 7.20962 11.9107 7.32016 11.7714 7.45949L7.17539 12.0545L2.57939 7.45849C2.44109 7.31516 2.27563 7.20081 2.09266 7.12211C1.90969 7.04341 1.71288 7.00194 1.51371 7.00012C1.31454 6.9983 1.11701 7.03616 0.932629 7.11149C0.74825 7.18682 0.58072 7.29812 0.439816 7.4389C0.298911 7.57967 0.187453 7.74709 0.111944 7.9314C0.0364361 8.11571 -0.00160939 8.31321 2.67883e-05 8.51238C0.00166296 8.71155 0.0429474 8.9084 0.121473 9.09144C0.199999 9.27448 0.314193 9.44005 0.457392 9.57849L6.11539 15.2385L6.11539 15.2365Z" fill="white"/>
<path fill-rule="evenodd" clip-rule="evenodd" d="M6.11539 8.23649C6.39664 8.51739 6.77789 8.67517 7.17539 8.67517C7.57289 8.67517 7.95414 8.51739 8.23539 8.23649L13.8934 2.58049C14.1747 2.2991 14.3326 1.9175 14.3325 1.51964C14.3325 1.32264 14.2936 1.12758 14.2182 0.94559C14.1428 0.763604 14.0322 0.598258 13.8929 0.458991C13.7536 0.319724 13.5882 0.209264 13.4061 0.133919C13.2241 0.0585732 13.029 0.0198167 12.832 0.0198631C12.635 0.0199095 12.44 0.0587582 12.258 0.13419C12.076 0.209621 11.9107 0.320158 11.7714 0.459491L7.17539 5.05449L2.57939 0.45849C2.44109 0.315161 2.27563 0.200811 2.09266 0.122112C1.90969 0.0434135 1.71288 0.001944 1.51371 0.00012001C1.31454 -0.00170398 1.11701 0.0361557 0.932629 0.11149C0.74825 0.186824 0.58072 0.298124 0.439816 0.438896C0.298911 0.579668 0.187453 0.747093 0.111944 0.931401C0.0364361 1.11571 -0.00160939 1.31321 2.67883e-05 1.51238C0.00166296 1.71155 0.0429474 1.9084 0.121473 2.09144C0.199999 2.27448 0.314193 2.44005 0.457392 2.57849L6.11539 8.23849L6.11539 8.23649Z" fill="white"/>
</svg>
